<?xml version="1.0"?>
<svg fill="none" height="126" viewBox="0 0 305 126" width="305" xmlns="http://www.w3.org/2000/svg">
    <mask id="a" height="119" maskUnits="userSpaceOnUse" width="8" x="4" y="0">
        <path d="m11.1821 9.29224v-8.765728h-6.3198v8.765728zm0 109.39576v-37.8675h-6.3198v37.8675z" fill="#fff"></path>
    </mask>
    <path d="m4.8623 118.689v5.96h298.7867v-5.96z" fill="#161616"></path>
    <g mask="url(#a)">
        <path d="m4.8623.526512v118.161488h6.3198v-118.161488z" fill="#161616"></path>
    </g>
    <path d="m297.329.526512v118.161488h6.32v-118.161488z" fill="#161616"></path>
    <g stroke="#161616" stroke-linecap="round" stroke-linejoin="round">
        <path d="m297.329 118.688h-286.1474"></path>
        <path d="m4.8623 118.689v5.96h298.7867v-5.96"></path>
        <path d="m11.1821 118.688v-37.8674h-6.3198v37.8674"></path>
        <path d="m11.1821 9.2925v-8.765727h-6.3198v8.765727zm0 0v71.5283"></path>
        <path d="m4.8623 80.8208v-1.7531-68.0221-1.7531"></path>
        <path d="m8.02246 80.8208h3.15994"></path>
        <path d="m11.1824 9.29248h-3.15994"></path>
        <path d="m303.649 118.688v-118.161485h-6.32v118.161485"></path>
        <path d="m8.02221 46.8096h-3.15991"></path>
        <path d="m8.02246 43.3033v3.5063"></path>
        <path d="m4.8623 43.3032h3.15991"></path>
        <path d="m4.8623 46.8096v-3.5063"></path>
        <path d="m8.02221 80.8208h-3.15991"></path>
        <path d="m8.02246 77.6651v3.1557"></path>
        <path d="m4.8623 77.665h3.15991"></path>
        <path d="m4.8623 80.8208v-3.1557"></path>
        <path d="m8.02221 12.4482h-3.15991"></path>
        <path d="m8.02246 9.29259v3.15561"></path>
        <path d="m4.8623 9.29248h3.15991"></path>
        <path d="m4.8623 12.4482v-3.15561"></path>
        <path d="m1.35156 11.0454h.3511zm0 0v-1.05188h1.0533v1.05188h2.45771v-1.05188h-3.51101zm0 0h.3511zm0 0v-1.05188h1.0533v1.05188h2.45771v-1.05188h-3.51101z"></path>
        <path d="m1.35156 79.0677v1.0519h3.51101v-1.0519h-2.45771v1.0519h-1.0533zm0 0h.3511z"></path>
        <path d="m1.70316 79.0674h-.3516"></path>
        <path d="m1.35156 79.0674h.3516"></path>
        <path d="m1.35156 80.1196v-1.0519"></path>
        <path d="m2.40486 80.1196h-1.0533"></path>
        <path d="m2.4043 79.0677v1.0519"></path>
        <path d="m4.862 79.0674h-2.4577"></path>
        <path d="m4.8623 80.1196v-1.0519"></path>
        <path d="m1.35156 80.1196h3.51101"></path>
        <path d="m1.35156 79.0677v1.0519"></path>
        <path d="m9.07576 44.7061h-1.0533"></path>
        <path d="m9.0752 11.0457v33.6604"></path>
        <path d="m8.02246 11.0454h1.0533"></path>
        <path d="m5.91504 43.3032v-30.8553"></path>
        <path d="m5.91504 41.1997h3.15991"></path>
        <path d="m5.91504 14.5518h3.15991"></path>
        <path d="m6.61719 14.5519v26.6478"></path>
        <path d="m8.37305 14.5519v26.6478"></path>
        <path d="m9.0752 41.1997v-26.6478"></path>
        <path d="m9.0752 11.0457v33.6604"></path>
        <path d="m8.02246 11.0454h1.0533"></path>
        <path d="m8.02246 44.7061h1.0533"></path>
        <path d="m8.02246 11.0455h1.0533v3.5063"></path>
        <path d="m9.07576 44.7061h-1.0533"></path>
        <path d="m9.0752 41.1998v3.5063"></path>
        <path d="m9.07576 79.0674h-1.0533"></path>
        <path d="m9.0752 45.407v33.6604"></path>
        <path d="m8.02246 45.4072h1.0533"></path>
        <path d="m5.91504 77.665v-30.8553"></path>
        <path d="m5.91504 75.5615h3.15991"></path>
        <path d="m5.91504 48.9136h3.15991"></path>
        <path d="m6.61719 48.9137v26.6478"></path>
        <path d="m8.37305 48.9137v26.6478"></path>
        <path d="m9.0752 75.5615v-26.6478"></path>
        <path d="m9.0752 45.407v33.6604"></path>
        <path d="m8.02246 45.4072h1.0533"></path>
        <path d="m8.02246 79.0674h1.0533z"></path>
        <path d="m9.0752 75.5611v3.5063"></path>
        <path d="m8.02246 45.4073h1.0533v3.5063"></path>
        <path d="m8.02159 80.8208h-1.4044"></path>
        <path d="m8.02246 79.0677v1.7531"></path>
        <path d="m6.61719 9.29227h1.4044v1.75313"></path>
        <path d="m8.02246 44.705v.7022"></path>
        <path d="m8.02246 9.29227v1.75313"></path>
        <path d="m8.02246 44.705v.7022"></path>
        <path d="m8.02246 79.0677v1.7531"></path>
        <path d="m4.8623 9.29248h1.75551"></path>
        <path d="m4.8623 12.4482v-3.15561"></path>
        <path d="m5.91561 12.4482h-1.05331"></path>
        <path d="m4.8623 77.665h1.05331"></path>
        <path d="m4.8623 80.8208v-3.1557"></path>
        <path d="m6.61781 80.8208h-1.75551"></path>
        <path d="m4.8623 43.3032h1.05331"></path>
        <path d="m4.8623 46.8096v-3.5063"></path>
        <path d="m5.91561 46.8096h-1.05331"></path>
        <path d="m4.8623 43.3032h1.05331"></path>
        <path d="m4.8623 12.4482h1.05331"></path>
        <path d="m4.8623 77.665h1.05331"></path>
        <path d="m4.8623 46.8096h1.05331"></path>
        <path d="m4.8623 46.8097v30.8553"></path>
        <path d="m4.8623 12.4479v30.8553"></path>
        <path d="m4.8623 80.8208v-71.5283"></path>
        <path d="m4.8623.526768h298.7867v124.122232h-298.7867zm0 0v124.122232h298.7867v-124.122232z"></path>
    </g>
</svg>