<svg fill="none" height="125" viewBox="0 0 303 125" width="303" xmlns="http://www.w3.org/2000/svg">
    <mask id="b" height="119" maskUnits="userSpaceOnUse" width="8" x="3" y="6">
        <path d="m10.1699 44.6911v-37.87502h-6.31248v37.87502zm0 79.9579v-8.767h-6.31248v8.767z" fill="#fff"></path>
    </mask>
    <mask id="c" height="119" maskUnits="userSpaceOnUse" width="8" x="295" y="6">
        <path d="m302.299 41.8855v-35.06942h-6.313v35.06942zm0 82.7635v-41.0308h-6.313v41.0308z" fill="#fff"></path>
    </mask>
    <path d="m3.85742.503418v6.312502h298.44058v-6.312502z" fill="#161616"></path>
    <g mask="url(#b)">
        <path d="m3.85742 6.81608v117.83292h6.31248v-117.83292z" fill="#161616"></path>
    </g>
    <g mask="url(#c)">
        <path d="m295.986 6.81608v117.83292h6.313v-117.83292z" fill="#161616"></path>
    </g>
    <g stroke="#161616" stroke-linecap="round" stroke-linejoin="round">
        <path d="m302.298.503419h-298.44058v6.312501"></path>
        <path d="m10.1699 6.81592h285.8161"></path>
        <path d="m302.299 6.81592v-6.312501"></path>
        <path d="m3.85742 6.81592v37.87498h6.31248v-37.87498"></path>
        <path d="m3.85742 115.882v8.767h6.31248v-8.767zm0 0v-1.753-67.6844-1.7535"></path>
        <path d="m10.1699 44.6909v71.1911"></path>
        <path d="m7.01367 115.882h3.15623"></path>
        <path d="m10.1699 44.6909h-3.15623"></path>
        <path d="m295.986 6.81582v35.06948h6.313v-35.06948"></path>
        <path d="m295.986 83.6182v41.0308h6.313v-41.0308z"></path>
        <path d="m254.254 42.5869h40.33"></path>
        <path d="m294.584 82.9165-10.521-1.4028-9.469-3.8576-8.416-6.6632-6.664-8.4167-3.857-9.8194-1.403-10.1702"></path>
        <path d="m302.65 84.3193h-.351"></path>
        <path d="m302.649 81.8645v2.4548"></path>
        <path d="m296.688 81.8647h5.961"></path>
        <path d="m297.038 81.8647h-.35"></path>
        <path d="m297.038 82.2153v-.3507"></path>
        <path d="m295.285 82.2153h1.754"></path>
        <path d="m295.285 84.3193v-2.1041"></path>
        <path d="m295.987 84.3193h-.702"></path>
        <path d="m295.285 84.3193h.702"></path>
        <path d="m295.285 82.5659v1.7534"></path>
        <path d="m297.039 82.5659h-1.754"></path>
        <path d="m297.038 81.8645v.7014"></path>
        <path d="m296.688 81.8647h.35"></path>
        <path d="m302.649 81.8647h-5.961"></path>
        <path d="m302.649 84.3193v-2.4548"></path>
        <path d="m302.299 84.3193h.351"></path>
        <path d="m296.688 43.6387h5.961"></path>
        <path d="m297.038 43.6387h-.35"></path>
        <path d="m297.038 42.9373v.7014"></path>
        <path d="m295.285 42.9375h1.754"></path>
        <path d="m295.285 41.184v1.7535"></path>
        <path d="m295.987 41.1841h-.702"></path>
        <path d="m295.285 41.1841h.702"></path>
        <path d="m295.285 42.9375v-1.7535"></path>
        <path d="m297.039 42.9375h-1.754"></path>
        <path d="m297.038 43.2881v-.3507"></path>
        <path d="m296.688 43.2881h.35"></path>
        <path d="m296.688 43.6387v-.3507"></path>
        <path d="m302.649 43.6387h-5.961"></path>
        <path d="m302.649 41.1838v2.4549"></path>
        <path d="m302.299 41.1841h.351"></path>
        <path d="m302.65 41.1841h-.351"></path>
        <path d="m302.649 43.6387v-2.4549"></path>
        <path d="m302.65 84.3193h-.351"></path>
        <path d="m302.649 81.8645v2.4548"></path>
        <path d="m296.688 81.8647h5.961"></path>
        <path d="m297.038 81.8647h-.35"></path>
        <path d="m297.038 82.5659v-.7014"></path>
        <path d="m295.285 82.5659h1.754"></path>
        <path d="m295.285 84.3193v-1.7534"></path>
        <path d="m295.987 84.3193h-.702z"></path>
        <path d="m295.285 82.2152v2.1041"></path>
        <path d="m297.039 82.2153h-1.754"></path>
        <path d="m297.038 81.8646v.3507"></path>
        <path d="m296.688 81.8647h.35"></path>
        <path d="m302.649 81.8647h-5.961"></path>
        <path d="m302.649 84.3193v-2.4548"></path>
        <path d="m302.299 84.3193h.351"></path>
        <path d="m302.65 41.1841h-.351"></path>
        <path d="m302.649 41.1838v2.4549"></path>
        <path d="m296.688 43.6387h5.961"></path>
        <path d="m296.688 43.6387v-.3507"></path>
        <path d="m297.038 43.2881h-.35"></path>
        <path d="m297.038 43.2881v-.3507"></path>
        <path d="m295.285 42.9375h1.754"></path>
        <path d="m295.285 42.9375v-1.7535"></path>
        <path d="m295.987 41.1841h-.702z"></path>
        <path d="m295.285 41.184v1.7535"></path>
        <path d="m297.039 42.9375h-1.754"></path>
        <path d="m297.038 42.9373v.7014"></path>
        <path d="m296.688 43.6387h.35"></path>
        <path d="m302.649 43.6387h-5.961"></path>
        <path d="m302.649 43.6387v-2.4549"></path>
        <path d="m302.299 41.1841h.351"></path>
        <path d="m3.85742 78.3577v3.8576h3.15625v-3.8576z"></path>
        <path d="m3.85742 44.691v2.8056h3.15625v-2.8056z"></path>
        <path d="m3.85742 113.076v2.806h3.15625v-2.806z"></path>
        <path d="m.350586 114.129v1.052h3.506944v-1.052h-2.45486v1.052h-1.052084zm0 0h.350694z"></path>
        <path d="m.70128 114.128h-.350694"></path>
        <path d="m.350586 114.128h.350694"></path>
        <path d="m.350586 115.181v-1.052"></path>
        <path d="m1.40267 115.181h-1.052084"></path>
        <path d="m1.40234 114.129v1.052"></path>
        <path d="m3.8572 114.128h-2.45486"></path>
        <path d="m3.85742 115.181v-1.052"></path>
        <path d="m.350586 115.181h3.506944"></path>
        <path d="m.350586 114.129v1.052"></path>
        <path d="m.350586 46.4443h.350694zm0 0v-1.052h1.052084v1.052h2.45486v-1.052h-3.506944zm0 0h.350694zm0 0v-1.052h1.052084v1.052h2.45486v-1.052h-3.506944z"></path>
        <path d="m4.91016 82.2151v30.8609"></path>
        <path d="m7.01367 114.479h1.05208v-33.6667h-1.05208"></path>
        <path d="m4.91016 84.3193h3.15625"></path>
        <path d="m4.91016 110.972h3.15625"></path>
        <path d="m5.61133 110.972v-26.6526"></path>
        <path d="m7.36426 110.972v-26.6526"></path>
        <path d="m8.06641 114.479v-33.6667"></path>
        <path d="m8.06641 84.3194v26.6526"></path>
        <path d="m7.01367 114.479h1.05208"></path>
        <path d="m7.01367 80.8125h1.05208"></path>
        <path d="m8.06575 84.3193v-3.5069h-1.05208"></path>
        <path d="m8.06641 114.479v-3.507"></path>
        <path d="m7.01367 114.479h1.05208"></path>
        <path d="m4.91016 47.4963v30.8611"></path>
        <path d="m7.01367 79.7603h1.05208v-33.6667h-1.05208"></path>
        <path d="m4.91016 49.6006h3.15625"></path>
        <path d="m4.91016 76.2534h3.15625"></path>
        <path d="m5.61133 76.2534v-26.6528"></path>
        <path d="m7.36426 76.2534v-26.6528"></path>
        <path d="m8.06641 79.7603v-33.6667"></path>
        <path d="m8.06641 49.6006v26.6528"></path>
        <path d="m7.01367 79.7603h1.05208"></path>
        <path d="m7.01367 46.0938h1.05208"></path>
        <path d="m8.06641 79.7603v-3.507"></path>
        <path d="m7.01367 79.7603h1.05208"></path>
        <path d="m8.06619 49.6006v-3.507h-1.05208v-1.4027h-1.40278"></path>
        <path d="m7.01367 115.882v-1.403"></path>
        <path d="m5.61133 115.882h1.40278"></path>
        <path d="m7.01367 80.8125v-1.0521"></path>
        <path d="m7.01367 115.882v-1.403"></path>
        <path d="m7.01367 80.8125v-1.0521"></path>
        <path d="m7.01367 46.0938v-1.4028"></path>
        <path d="m5.61089 44.691h-1.75347v2.8056h1.05208"></path>
        <path d="m4.9095 113.076h-1.05208v2.806h1.75347"></path>
        <path d="m4.9095 78.3577h-1.05208v3.8576h1.05208"></path>
        <path d="m3.85742 82.2153h1.05208"></path>
        <path d="m3.85742 113.076h1.05208"></path>
        <path d="m3.85742 47.4966h1.05208"></path>
        <path d="m3.85742 78.3574h1.05208"></path>
        <path d="m3.85742 44.6909v71.1911"></path>
        <path d="m3.85742 113.076v-30.8609"></path>
        <path d="m3.85742 78.3574v-30.8611"></path>
        <path d="m3.85742 124.649v-124.145425h298.44058v43.135425 38.2257 42.7843zm0 0h298.44058v-42.7843-38.2257-43.135425h-298.44058z"></path>
    </g>
</svg>