<svg fill="none" height="126" viewBox="0 0 303 126" width="303" xmlns="http://www.w3.org/2000/svg">
    <mask id="b" height="125" maskUnits="userSpaceOnUse" width="8" x="3" y="1">
        <path d="m10.1821 10.1368v-9.12867h-6.3198v9.12867zm0 115.5122v-9.129h-6.3198v9.129z" fill="#fff"></path>
    </mask>
    <g mask="url(#b)">
        <path d="m3.8623 1.00813v124.64087h6.3198v-124.64087z" fill="#161616"></path>
    </g>
    <path d="m296.329 1.00813v124.64087h6.32v-124.64087z" fill="#161616"></path>
    <g stroke="#161616" stroke-linecap="round" stroke-linejoin="round">
        <path d="m10.1821 125.649v-9.129h-6.3198v9.129z"></path>
        <path d="m10.1821 10.137v-9.12866h-6.3198v9.12866zm0 0v106.384"></path>
        <path d="m3.8623 116.521v-1.756-103.2236-1.4044"></path>
        <path d="m7.02246 116.521h3.15994"></path>
        <path d="m10.1824 10.1367h-3.15994"></path>
        <path d="m302.649 125.649v-124.64087h-6.32v124.64087z"></path>
        <path d="m3.8623 10.1365v2.8088h3.15991v-2.8088z"></path>
        <path d="m3.8623 43.8425v3.8621h3.15991v-3.8621z"></path>
        <path d="m3.8623 79.3034v3.8621h3.15991v-3.8621z"></path>
        <path d="m3.8623 113.712v2.809h3.15991v-2.809z"></path>
        <path d="m.351563 114.765-.000001 1.053h3.511008v-1.053h-2.45771v.351.702h-1.053298l.000001-.702h.3511v-.351z"></path>
        <path d="m.702663 114.765h-.351101"></path>
        <path d="m.702148 115.116v-.351"></path>
        <path d="m.351562 115.116h.351101"></path>
        <path d="m.351562 115.818.000001-.702"></path>
        <path d="m1.40486 115.818h-1.053298"></path>
        <path d="m1.4043 115.116v.702"></path>
        <path d="m3.862 114.765h-2.4577"></path>
        <path d="m3.8623 115.818v-1.053"></path>
        <path d="m.351562 115.818h3.511008"></path>
        <path d="m.351563 114.765-.000001 1.053"></path>
        <path d="m.351562 11.8921h.351101v-.3511h-.351101l.000001-.7022h1.053297v.7022.3511h2.45771v-1.0533-.3511h-3.511007v.3511zm0 0h.351101v-.3511h-.351101l.000001-.7022h1.053297v.7022"></path>
        <path d="m1.40486 11.8921h2.45771v-1.0533-.3511h-3.511007v.3511l-.000001 1.0533"></path>
        <path d="m4.91504 83.1657v30.5453"></path>
        <path d="m7.02246 115.116h1.0533v-33.3549h-1.0533"></path>
        <path d="m4.91504 85.2725h3.15991"></path>
        <path d="m4.91504 111.605h3.15991"></path>
        <path d="m5.61719 111.605v-26.3326"></path>
        <path d="m7.37305 111.605v-26.3326"></path>
        <path d="m8.0752 115.116v-33.3549"></path>
        <path d="m8.0752 85.2724v26.3326"></path>
        <path d="m7.02246 115.116h1.0533"></path>
        <path d="m7.02246 81.7612h1.0533"></path>
        <path d="m8.0752 115.116v-3.511"></path>
        <path d="m7.02246 115.116h1.0533"></path>
        <path d="m8.07576 85.2725v-3.511h-1.0533"></path>
        <path d="m4.91504 47.7046v31.5991"></path>
        <path d="m7.02246 80.708h1.0533v-34.4079h-1.0533"></path>
        <path d="m4.91504 49.46h3.15991"></path>
        <path d="m4.91504 77.5479h3.15991"></path>
        <path d="m5.61719 77.5479v-28.0881"></path>
        <path d="m7.37305 77.5479v-28.0881"></path>
        <path d="m8.0752 80.708v-34.4079"></path>
        <path d="m8.0752 49.4598v28.0881"></path>
        <path d="m7.02246 80.708h1.0533"></path>
        <path d="m7.02246 46.3003h1.0533"></path>
        <path d="m8.07576 49.46v-3.1599h-1.0533"></path>
        <path d="m8.0752 80.708v-3.1599"></path>
        <path d="m7.02246 80.708h1.0533"></path>
        <path d="m4.91504 12.9454v30.8969"></path>
        <path d="m7.02246 45.2466h1.0533v-33.7057h-1.0533"></path>
        <path d="m4.91504 15.0522h3.15991"></path>
        <path d="m4.91504 41.7358h3.15991"></path>
        <path d="m5.61719 41.7358v-26.6836"></path>
        <path d="m7.37305 41.7358v-26.6836"></path>
        <path d="m8.0752 45.2466v-33.7057"></path>
        <path d="m8.0752 15.0522v26.6836"></path>
        <path d="m7.02246 45.2466h1.0533"></path>
        <path d="m7.02246 11.541h1.0533"></path>
        <path d="m8.07576 15.0522v-3.511h-1.0533"></path>
        <path d="m8.0752 45.2466v-3.511"></path>
        <path d="m7.02246 45.2466h1.0533"></path>
        <path d="m7.02159 11.541v-1.4044h-1.4044"></path>
        <path d="m7.02246 116.521v-1.405"></path>
        <path d="m5.61719 116.521h1.4044"></path>
        <path d="m7.02246 46.3003v-1.0533"></path>
        <path d="m7.02246 81.7612v-1.0533"></path>
        <path d="m7.02246 116.521v-1.405"></path>
        <path d="m7.02246 81.7612v-1.0533"></path>
        <path d="m7.02246 46.3003v-1.0533"></path>
        <path d="m7.02246 11.541v-1.4044"></path>
        <path d="m5.61781 10.1365h-1.75551v2.8088h1.05331"></path>
        <path d="m4.91561 43.8425h-1.05331v3.8621h1.05331"></path>
        <path d="m4.91561 79.3034h-1.05331v3.8621h1.05331"></path>
        <path d="m4.91561 113.712h-1.05331v2.809h1.75551"></path>
        <path d="m3.8623 12.9453h1.05331"></path>
        <path d="m3.8623 43.8423h1.05331"></path>
        <path d="m3.8623 47.7046h1.05331"></path>
        <path d="m3.8623 79.3037h1.05331"></path>
        <path d="m3.8623 83.1655h1.05331"></path>
        <path d="m3.8623 113.711h1.05331"></path>
        <path d="m3.8623 10.137v106.384"></path>
        <path d="m3.8623 113.711v-30.5453"></path>
        <path d="m3.8623 79.3037v-31.5991"></path>
        <path d="m3.8623 43.8423v-30.8969"></path>
        <path d="m3.8623 125.649v-124.64087h298.7867v124.64087zm0 0h298.7867v-124.64087h-298.7867z"></path>
    </g>
</svg>